<svg width="623" height="152" viewBox="0 0 623 152" fill="none" xmlns="http://www.w3.org/2000/svg">
<g opacity="0.5" clip-path="url(#clip0_1494_1843)">
<path d="M0 66.3845V0.696045H52.3941C63.0974 0.696045 70.433 3.45159 74.1782 8.89501C77.6524 13.9517 79.3363 21.7252 79.3363 32.6701C79.3651 37.7291 78.9375 42.7804 78.0589 47.7628C77.0911 52.9548 75.204 57.0446 72.4072 59.9065C69.6536 62.7574 66.0773 64.6774 62.1781 65.3983C58.1717 66.0967 54.1089 66.4204 50.0424 66.3651L0 66.3845ZM50.1296 52.8484C56.42 52.8484 60.6877 51.6399 61.8393 49.5418C62.991 47.4437 64.2781 42.9671 64.2781 32.7861C64.2781 23.5913 62.9426 19.3854 61.8103 17.4711C60.678 15.5567 56.7006 14.2901 50.8167 14.2901H14.8066V52.8194L50.1296 52.8484Z" fill="white"/>
<path d="M107.82 0.609131H93.0234V66.3846H107.82V0.609131Z" fill="white"/>
<path d="M158.38 66.9357C154.025 66.9357 150.638 66.8874 148.431 66.7907C146.225 66.694 142.712 66.346 138.057 65.7272C132.512 64.9827 128.379 62.8846 125.844 59.4716C123.308 56.0586 122.195 51.0502 122.195 43.7504V39.883H137.031V45.0364C136.928 46.9219 137.128 48.8117 137.621 50.6345C137.621 50.7312 138.066 51.1663 139.392 51.6014C142.095 52.3196 144.871 52.7251 147.667 52.8099C151.392 53.0227 155.128 53.129 158.767 53.129C163.71 53.1769 168.652 52.9218 173.564 52.3652C178.16 51.785 179.544 50.7505 179.854 50.4314C180.551 49.7546 180.938 48.1883 180.938 46.0129C180.938 42.6482 180.212 41.4783 179.97 41.314C179.36 40.9659 177.386 40.1441 172.054 40.1441H158.573L143.089 39.709C136.876 39.709 131.902 38.4037 128.302 35.8415C124.276 32.999 122.224 28.3677 122.224 22.0735C122.107 18.082 122.894 14.1156 124.528 10.4711C125.391 8.69983 126.597 7.11653 128.075 5.81232C129.553 4.50811 131.274 3.50873 133.141 2.87163C136.944 1.53254 140.913 0.722451 144.937 0.464143C149.147 0.145079 153.899 -0.0192871 159.067 -0.0192871C163.315 -0.0192871 166.47 -0.0192877 168.425 0.116073C170.38 0.251433 173.496 0.48348 177.87 0.947573C183.115 1.50835 187.257 3.49041 190.17 6.83574C193.083 10.1811 194.515 14.996 194.515 21.2516V25.1191H179.709V21.2516C179.815 19.6627 179.618 18.0681 179.128 16.5527C178.789 15.7889 178.451 15.5858 178.325 15.5858C177.967 15.4021 176.728 14.8897 172.906 14.3966C168.959 13.9711 164.991 13.7806 161.022 13.8262H158.583C154.886 13.8262 150.996 14.0002 147.028 14.3386C142.489 14.735 140.341 15.3054 139.334 15.7792C138.716 15.9831 138.187 16.3926 137.834 16.9394C137.43 18.1543 137.244 19.4307 137.283 20.7102C137.283 21.9478 137.437 24.1232 138.473 24.8097C139.508 25.4961 141.183 26.1053 144.821 26.1053H164.854C167.234 26.1053 169.412 26.1052 171.338 26.1923C173.264 26.2793 176.177 26.492 180.048 26.9078C184.29 27.2407 188.291 29.011 191.39 31.9258C194.486 34.9424 195.996 39.5833 195.996 46.1096C196.097 49.7027 195.407 53.274 193.973 56.571C192.416 59.8147 189.714 62.3694 186.386 63.7451C182.95 65.2009 179.299 66.0859 175.576 66.3653C171.705 66.723 167.496 66.9067 162.996 66.9067L158.38 66.9357Z" fill="white"/>
<path d="M239.831 67.0807L226.747 66.5489H226.631C214.457 65.3017 207.682 58.0406 207.682 46.1095L207.344 34.9713C207.344 30.5334 207.344 27.1591 207.47 24.974C207.678 21.7549 208.125 18.5555 208.805 15.4021C209.178 13.1609 209.999 11.0179 211.22 9.10087C212.44 7.18386 214.035 5.5322 215.908 4.24451C219.412 1.85637 224.134 0.638117 229.97 0.609112C232.302 0.338391 234.547 0.174026 236.647 0.0966771C238.747 0.0193283 241.225 0 244.051 0H254.493C257.938 0 260.783 0.0773446 262.96 0.222374C265.889 0.48875 268.799 0.940857 271.67 1.57597C273.841 1.96672 275.881 2.89301 277.603 4.27077C279.325 5.64854 280.675 7.43415 281.532 9.46555C283.099 13.0526 283.864 17.5678 283.864 23.2723V27.1397H269.135V22.7309C269.169 20.7537 269.033 18.7773 268.728 16.8234C268.701 16.3571 268.493 15.9199 268.148 15.6051C268.051 15.5374 266.996 14.909 263.193 14.4159C258.963 13.9609 254.71 13.7639 250.457 13.8261C248.444 13.8261 245.309 13.9228 241.147 14.1258C236.986 14.3289 233.754 14.4255 231.538 14.4352C225.731 14.9186 224.55 15.9532 224.502 16.0015C224.25 16.2432 223.389 17.3358 223.031 20.7585C222.702 24.0361 222.499 27.0334 222.441 29.6826C222.383 32.3318 222.354 35.0197 222.354 37.5142C222.354 46.3513 223.467 49.7739 224.134 51.0502C224.676 52.0751 227.163 53.1869 232.505 53.1869H259.08C265.331 53.1869 267.557 52.2201 268.225 51.8527C268.661 51.5819 269.493 50.035 269.493 46.0515V39.8636H284.541V43.7311C284.541 52.1427 283.09 57.8859 280.099 61.2892C276.944 64.8763 271.002 66.5586 261.412 66.5683L246.422 67.0904L239.831 67.0807Z" fill="white"/>
<path d="M327.178 66.9937C323.622 67 320.069 66.816 316.533 66.4426C313.324 66.1615 310.173 65.4225 307.174 64.2478C304.125 62.9544 301.57 60.7178 299.887 57.8665C298.018 54.6385 296.89 51.0353 296.587 47.3181C296.129 42.8566 295.916 38.3733 295.949 33.8884C295.949 29.0541 296.016 25.6411 296.132 23.5043C296.399 20.3122 296.907 17.1448 297.652 14.0291C298.097 11.7209 299.057 9.54239 300.459 7.6546C301.861 5.76681 303.67 4.21808 305.752 3.12295C309.555 1.08287 314.462 0.0483398 320.471 0.0483398H346.165C359.578 0.0483398 367.804 1.91438 372.043 5.93651C376.282 9.95865 378.343 18.0512 378.343 31.2392V35.155C378.33 39.6965 378.078 44.2341 377.588 48.7491C376.988 54.3278 374.888 58.7464 371.336 61.8887C367.785 65.031 362.782 66.5683 356.288 66.607C354.478 66.781 352.262 66.8873 349.514 66.955C346.765 67.0227 344.114 67.042 341.714 67.042L327.178 66.9937ZM311.016 37.9299C311.016 46.5736 312.149 49.7159 312.816 50.8181C312.942 51.0308 314.268 52.8485 322 52.8485L337.117 53.1966H344.268C348.275 53.1966 352.349 52.9936 356.385 52.5972C358.32 52.4135 360.885 51.872 361.756 50.3637C362.453 49.1648 363.285 46.6897 363.285 41.72V29.7406C363.307 26.6932 363.171 23.6468 362.878 20.6134C362.819 19.0643 362.387 17.5522 361.62 16.2046C361.226 15.5914 360.62 15.1442 359.917 14.9476C358.541 14.5794 357.136 14.3304 355.717 14.2032C354.178 14.0678 352.514 14.0001 350.781 14.0001L337.107 13.8261L323.655 14.0001C315.681 14.0001 313.484 15.2957 313.01 15.6921C312.836 15.8372 311.287 17.3261 311.287 24.887L311.026 33.6854L311.016 37.9299Z" fill="white"/>
<path d="M415.524 66.3846L379.562 0.609131H396.537L422.744 48.2656L449.366 0.609131H466.292L429.779 66.3846H415.524Z" fill="white"/>
<path d="M469.195 66.3846V0.609131H534.509V14.2612H483.992V25.7571H532.68V39.3222H483.992V52.8195H535.119V66.3846H469.195Z" fill="white"/>
<path d="M607.245 66.3846V49.6386C607.245 46.2933 606.587 44.611 606.025 44.1855C605.464 43.7601 603.79 42.89 598.835 42.89H563.028V66.3846H548.328V0.638184H599.493C607.477 0.638184 613.187 2.04981 616.971 4.96972C621.064 8.12169 623.048 13.6038 623.048 21.7351C623.048 27.9906 622.08 32.1675 619.913 34.8747C619.398 35.5216 618.803 36.1 618.142 36.5957C620.706 38.7518 622.013 42.1745 622.013 46.7961V66.4136L607.245 66.3846ZM598.138 29.3249C603.838 29.3249 605.813 28.242 606.393 27.7683C606.761 27.4782 607.942 26.1633 607.942 21.271C607.942 17.829 607.206 16.1369 606.519 15.7019C605.667 15.1604 603.422 14.2612 597.964 14.2612H563.125V29.3249H598.138Z" fill="white"/>
<path d="M29.2551 151.391V99.2869H0V85.6445H73.4621V99.2869H44.0424V151.391H29.2551Z" fill="white"/>
<path d="M141.466 151.391V124.338H95.0529V151.391H80.2656V85.6445H95.0529V110.783H141.466V85.6445H156.166V151.391H141.466Z" fill="white"/>
<path d="M171.672 151.391V85.6445H236.956V99.2869H186.459V110.783H235.127V124.338H186.459V137.836H237.566V151.391H171.672Z" fill="white"/>
<path d="M308.916 152.019C305.361 152.023 301.808 151.842 298.271 151.478C295.066 151.195 291.918 150.456 288.923 149.283C285.874 147.992 283.32 145.759 281.635 142.911C279.775 139.68 278.651 136.078 278.345 132.363C277.887 127.901 277.674 123.418 277.706 118.933C277.706 114.099 277.764 110.686 277.89 108.549C278.153 105.363 278.661 102.202 279.41 99.0934C279.846 96.7766 280.8 94.5882 282.2 92.6914C283.601 90.7945 285.413 89.2383 287.5 88.1388C291.303 86.0987 296.21 85.0642 302.21 85.0642H327.894C341.297 85.0642 349.514 86.9302 353.752 90.9524C357.991 94.9745 360.052 103.057 360.052 116.236V120.113C360.041 124.651 359.786 129.186 359.288 133.697C358.698 139.276 356.598 143.695 353.046 146.837C349.494 149.979 344.491 151.516 338.007 151.545C336.197 151.72 333.981 151.836 331.233 151.894C328.484 151.952 325.833 151.981 323.491 151.981L308.916 152.019ZM292.755 122.955C292.755 131.58 293.887 134.732 294.555 135.834C294.681 136.037 296.007 137.855 303.729 137.855L318.836 138.203H325.997C329.994 138.203 334.068 138.009 338.104 137.613C340.039 137.42 342.604 136.878 343.475 135.38C344.172 134.181 345.004 131.706 345.004 126.736V114.766C345.023 111.719 344.884 108.672 344.588 105.639C344.53 104.094 344.102 102.585 343.339 101.24C342.948 100.62 342.336 100.17 341.626 99.9828C340.255 99.606 338.853 99.3536 337.436 99.2287C335.897 99.0933 334.242 99.0257 332.5 99.0257L318.836 98.842L305.394 99.016C297.419 99.016 295.223 100.312 294.748 100.718C294.574 100.853 293.036 102.342 293.036 109.903L292.765 118.692L292.755 122.955Z" fill="white"/>
<path d="M436.795 151.391L388.514 104.034V151.391H373.727V85.6445H390.885L439.021 132.76V85.6445H453.808V151.391H436.795Z" fill="white"/>
<path d="M469.227 151.391V85.6445H534.511V99.2869H484.014V110.783H532.682V124.338H484.014V137.836H535.121V151.391H469.227Z" fill="white"/>
<path d="M603.004 110.812H568V124.29H603.004V110.812Z" fill="white"/>
</g>
<defs>
<clipPath id="clip0_1494_1843">
<rect width="623" height="152" fill="white"/>
</clipPath>
</defs>
</svg>
