<svg
   version="1.1"
   id="svg2"
   xml:space="preserve"
   width="1164.3187"
   height="157.71333"
   viewBox="0 0 1164.3187 157.71333"
   sodipodi:docname="DuttonOne_Logo (14).ai"
   xmlns:inkscape="http://www.inkscape.org/namespaces/inkscape"
   xmlns:sodipodi="http://sodipodi.sourceforge.net/DTD/sodipodi-0.dtd"
   xmlns="http://www.w3.org/2000/svg"
   xmlns:svg="http://www.w3.org/2000/svg"><defs
     id="defs6"><clipPath
       clipPathUnits="userSpaceOnUse"
       id="clipPath16"><path
         d="M 0,118.285 H 873.239 V 0 H 0 Z"
         id="path14" /></clipPath></defs><sodipodi:namedview
     id="namedview4"
     pagecolor="#ffffff"
     bordercolor="#666666"
     borderopacity="1.0"
     inkscape:pageshadow="2"
     inkscape:pageopacity="0.0"
     inkscape:pagecheckerboard="0" /><g
     id="g8"
     inkscape:groupmode="layer"
     inkscape:label="DuttonOne_Logo (14)"
     transform="matrix(1.3333333,0,0,-1.3333333,0,157.71333)"><g
       id="g10"><g
         id="g12"
         clip-path="url(#clipPath16)"><g
           id="g18"
           transform="translate(696.5885,59.1427)"><path
             d="m 0,0 c 0,7.424 -7.83,10.729 -21.634,10.729 -13.804,0 -21.634,-3.305 -21.634,-10.729 0,-7.424 7.83,-10.729 21.634,-10.729 C -7.83,-10.729 0,-7.424 0,0 m -55.389,0 c 0,13.166 12.644,20.416 33.755,20.416 21.112,0 33.755,-7.25 33.755,-20.416 0,-13.166 -12.643,-20.415 -33.755,-20.415 -21.111,0 -33.755,7.249 -33.755,20.415"
             style="fill:#ffffff;fill-opacity:1;fill-rule:nonzero;stroke:none"
             id="path20" /></g><g
           id="g22"
           transform="translate(778.9469,78.862)"><path
             d="m 0,0 v -39.439 h -12.527 l -40.194,27.491 V -39.439 H -64.494 V 0 h 12.527 l 40.194,-27.317 V 0 Z"
             style="fill:#ffffff;fill-opacity:1;fill-rule:nonzero;stroke:none"
             id="path24" /></g><g
           id="g26"
           transform="translate(785.3864,78.862)"><path
             d="M 0,0 H 48.43 V -9.512 H 11.773 V -14.5 H 48.43 v -8.583 H 11.773 v -6.844 H 48.43 v -9.512 H 0 Z"
             style="fill:#ffffff;fill-opacity:1;fill-rule:nonzero;stroke:none"
             id="path28" /></g><path
           d="M 635.576,78.846 H 437.052 V 39.422 h 198.524 z"
           style="fill:#ffffff;fill-opacity:1;fill-rule:nonzero;stroke:none"
           id="path30" /><g
           id="g32"
           transform="translate(70.568,48.9347)"><path
             d="M 0,0 C 12.702,0 16.82,3.307 16.82,10.208 16.82,17.052 12.702,20.416 0,20.416 H -19.372 V 0 Z M -31.145,29.928 H 0.116 C 21.054,29.928 29,21.866 29,10.208 29,-1.508 20.937,-9.512 0,-9.512 h -31.145 z"
             style="fill:#ffffff;fill-opacity:1;fill-rule:nonzero;stroke:none"
             id="path34" /></g><g
           id="g36"
           transform="translate(104.8175,58.9108)"><path
             d="M 0,0 V 19.952 H 11.774 V 0.58 c 0,-7.308 4.698,-11.02 18.675,-11.02 14.094,0 18.734,3.712 18.734,11.02 V 19.952 H 60.957 V 0 c 0,-12.759 -8.642,-20.183 -30.508,-20.183 C 8.526,-20.183 0,-12.759 0,0"
             style="fill:#ffffff;fill-opacity:1;fill-rule:nonzero;stroke:none"
             id="path38" /></g><g
           id="g40"
           transform="translate(193.2555,69.0026)"><path
             d="m 0,0 h -23.547 v 9.86 h 58.81 V 0 H 11.774 V -29.58 H 0 Z"
             style="fill:#ffffff;fill-opacity:1;fill-rule:nonzero;stroke:none"
             id="path42" /></g><g
           id="g44"
           transform="translate(254.9264,69.0026)"><path
             d="m 0,0 h -23.547 v 9.86 h 58.81 V 0 H 11.774 V -29.58 H 0 Z"
             style="fill:#ffffff;fill-opacity:1;fill-rule:nonzero;stroke:none"
             id="path46" /></g><g
           id="g48"
           transform="translate(347.3712,59.1432)"><path
             d="m 0,0 c 0,7.424 -7.83,10.729 -21.634,10.729 -13.804,0 -21.633,-3.305 -21.633,-10.729 0,-7.424 7.829,-10.73 21.633,-10.73 C -7.83,-10.73 0,-7.424 0,0 m -55.389,0 c 0,13.166 12.644,20.416 33.755,20.416 21.112,0 33.756,-7.25 33.756,-20.416 0,-13.167 -12.644,-20.416 -33.756,-20.416 -21.111,0 -33.755,7.249 -33.755,20.416"
             style="fill:#ffffff;fill-opacity:1;fill-rule:nonzero;stroke:none"
             id="path50" /></g><g
           id="g52"
           transform="translate(429.8463,78.8624)"><path
             d="m 0,0 v -39.439 h -12.528 l -40.193,27.491 V -39.439 H -64.495 V 0 h 12.528 l 40.193,-27.317 V 0 Z"
             style="fill:#ffffff;fill-opacity:1;fill-rule:nonzero;stroke:none"
             id="path54" /></g></g></g></g></svg>
