<svg width="21" height="24" fill="none" xmlns="http://www.w3.org/2000/svg"><path d="M20.742 5.486L10.761.066a.55.55 0 0 0-.522 0L.258 5.486A.479.479 0 0 0 0 5.904v17.612c0 .267.232.484.518.484h19.963c.287 0 .519-.217.519-.484V5.904a.479.479 0 0 0-.258-.418zm-4.36 12.225H4.618v-1.575h11.764v1.575zm0-2.543H4.618v-1.575h11.764v1.575zm-11.764 3.51h11.764v1.575H4.618v-1.575zm11.764-6.053H4.618v-1.811h11.764v1.812zM4.618 23.032v-1.811h11.764v1.811H4.618zm15.345 0H17.42V10.33c0-.267-.232-.484-.518-.484H4.099c-.286 0-.518.217-.518.484v12.702H1.037V6.182L10.5 1.045l9.463 5.139v16.85z" fill="#fff"/></svg>