<svg width="21" height="24" viewBox="0 0 21 24" fill="none" xmlns="http://www.w3.org/2000/svg">
<path d="M20.7423 5.48615L10.7607 0.0656427C10.5996 -0.0218809 10.4004 -0.0218809 10.2393 0.0656427L0.257677 5.48615C0.0981382 5.57278 0 5.73205 0 5.90431V23.5162C0 23.7834 0.232102 24 0.518409 24H4.09946H16.9005H20.4816C20.7679 24 21 23.7834 21 23.5162V5.90431C21 5.73205 20.9019 5.57278 20.7423 5.48615V5.48615ZM16.3821 17.7106H4.61787V16.1357H16.3821V17.7106ZM16.3821 15.1681H4.61787V13.5931H16.3821V15.1681ZM4.61787 18.6782H16.3821V20.2531H4.61787V18.6782ZM16.3821 12.6255H4.61787V10.8139H16.3821V12.6255ZM4.61787 23.0324V21.2208H16.3821V23.0324H4.61787ZM19.9632 23.0324H17.419V10.3301C17.419 10.0629 17.1869 9.84631 16.9005 9.84631H4.09946C3.81314 9.84631 3.58105 10.0629 3.58105 10.3301V23.0324H1.03682V6.18254L10.5 1.04355L19.9632 6.18254V23.0324Z" fill="#6D6E71"/>
</svg>
