<svg width="19" height="23" fill="none" xmlns="http://www.w3.org/2000/svg"><path d="M9.5 1.125c3.28 0 5.941 2.63 5.941 5.874 0 1.261-.545 3.175-1.698 4.505L9.5 16.39l-4.242-4.884c-1.154-1.33-1.699-3.244-1.699-4.507 0-3.244 2.661-5.874 5.941-5.874zM9.5 0C5.602 0 2.422 3.145 2.422 6.999c0 1.56.593 3.648 1.97 5.237v.001l1.979 2.277H2.973a.57.57 0 0 0-.54.389L.029 22.267a.562.562 0 0 0 .54.733H18.43c.387 0 .66-.37.543-.733l-2.408-7.364a.567.567 0 0 0-.54-.389h-2.16c-.796-.039-.796 1.165 0 1.124h1.747l2.037 6.237H1.351l2.036-6.237h3.96l1.523 1.753h-.999a.549.549 0 0 0-.561.545.55.55 0 0 0 .561.547h3.253a.55.55 0 0 0 .563-.547.55.55 0 0 0-.563-.545h-.995l4.476-5.154v-.001c1.38-1.59 1.972-3.677 1.972-5.237C16.577 3.145 13.397 0 9.499 0z" fill="#E6E7E8"/><path d="M10.722 8.207a1.732 1.732 0 0 1-2.443.002 1.691 1.691 0 0 1 0-2.42 1.732 1.732 0 0 1 2.443.002c.68.672.68 1.743 0 2.415v.001zm.805.795a2.82 2.82 0 0 0 0-4.006 2.895 2.895 0 0 0-4.05 0 2.818 2.818 0 0 0 0 4.006 2.896 2.896 0 0 0 4.05 0z" fill="#E6E7E8"/></svg>