<svg width="20" height="23" viewBox="0 0 20 23" fill="none" xmlns="http://www.w3.org/2000/svg">
<path d="M9.91349 1.12508C13.1934 1.12508 15.8552 3.7546 15.8552 6.99912C15.8552 8.26012 15.3102 10.1741 14.1575 11.5043L9.91349 16.3901L5.6712 11.5058C4.51708 10.1755 3.97207 8.26157 3.97207 6.99912C3.97207 3.7546 6.63356 1.12508 9.91349 1.12508V1.12508ZM9.91349 0C6.01686 0 2.83747 3.14482 2.83747 6.99883C2.83747 8.55921 3.42969 10.6468 4.80765 12.2356V12.2373L6.78598 14.5144H3.38714C3.14174 14.5156 2.92374 14.6724 2.84797 14.9028L0.442081 22.267C0.323172 22.6293 0.597714 23 0.982714 23H18.8443C19.231 23 19.5038 22.6293 19.3866 22.267L16.979 14.9028C16.9032 14.6712 16.6852 14.5144 16.4387 14.5144H14.2793C13.4828 14.4753 13.4828 15.6789 14.2793 15.638H16.026L18.0632 21.8749H1.76554L3.80099 15.638H7.76145L9.28455 17.3911H8.28547C7.978 17.3853 7.72386 17.6305 7.72386 17.9363C7.72386 18.242 7.978 18.4893 8.28547 18.4832H11.538C11.8472 18.4893 12.1014 18.242 12.1014 17.9363C12.1014 17.6305 11.8469 17.3856 11.538 17.3911H10.5436L15.019 12.2373V12.2356C16.3987 10.6468 16.991 8.55921 16.991 6.99883C16.9913 3.14482 13.8101 0 9.91349 0V0Z" fill="#414042"/>
<path d="M11.1357 8.20697C10.4567 8.87877 9.3719 8.88022 8.69312 8.20871C8.01405 7.53691 8.01405 6.46168 8.69312 5.7893C9.37219 5.1178 10.4567 5.11924 11.1357 5.79104C11.8163 6.46255 11.8163 7.53401 11.1357 8.20552V8.20697ZM11.941 9.00194C13.0543 7.90121 13.0543 6.09825 11.941 4.99578C10.8262 3.89447 9.00351 3.89447 7.89077 4.99578C6.77599 6.09825 6.77599 7.90092 7.89077 9.00194C9.00351 10.1032 10.8262 10.1032 11.941 9.00194Z" fill="#8E6F00"/>
</svg>
