<svg width="21" height="21" fill="none" xmlns="http://www.w3.org/2000/svg"><path d="M10.424 11.315h.139c1.274-.021 2.304-.47 3.066-1.326 1.674-1.887 1.396-5.123 1.365-5.432-.109-2.317-1.204-3.426-2.11-3.944-.673-.387-1.46-.596-2.339-.613h-.074c-.482 0-1.43.078-2.34.596-.912.517-2.026 1.626-2.134 3.961-.03.31-.31 3.545 1.365 5.432.757.857 1.787 1.305 3.062 1.326zM7.158 4.666c0-.013.004-.026.004-.035.143-3.118 2.357-3.453 3.305-3.453H10.519c1.174.027 3.17.505 3.305 3.453 0 .013 0 .026.005.035.004.03.308 2.988-1.075 4.545-.547.617-1.278.921-2.24.93h-.043c-.956-.008-1.691-.313-2.235-.93-1.378-1.549-1.083-4.519-1.078-4.545z" fill="#fff"/><path d="M19.432 16.682v-.013c0-.035-.005-.07-.005-.11-.026-.86-.082-2.874-1.97-3.517-.013-.005-.03-.009-.043-.013-1.961-.5-3.592-1.631-3.61-1.644a.586.586 0 1 0-.674.961c.074.052 1.805 1.257 3.97 1.813 1.014.361 1.127 1.444 1.158 2.436 0 .039 0 .074.004.108.004.392-.022.996-.091 1.344-.705.4-3.466 1.783-7.667 1.783-4.184 0-6.963-1.387-7.671-1.787-.07-.348-.1-.953-.092-1.344 0-.035.005-.07.005-.109.03-.991.143-2.074 1.156-2.435 2.166-.556 3.897-1.765 3.97-1.813a.586.586 0 1 0-.673-.961c-.018.013-1.64 1.143-3.61 1.643a.544.544 0 0 0-.043.014c-1.888.647-1.944 2.66-1.97 3.518 0 .039 0 .073-.005.108v.013c-.004.227-.008 1.388.222 1.97a.558.558 0 0 0 .226.274C2.15 19.008 5.277 21 10.51 21c5.23 0 8.357-1.996 8.488-2.079.1-.065.183-.16.226-.274.217-.578.213-1.74.209-1.965z" fill="#fff"/></svg>