<svg width="160" height="24" fill="none" xmlns="http://www.w3.org/2000/svg"><g clip-path="url(#clip0_1453_2020)"><path d="M160.002.024v23.952H40.065a6.855 6.855 0 0 1-.096-.854V.024h120.033zM7.212 18.036h12.675c1.232-.01 2.46-.123 3.673-.337 3-.565 5.269-1.72 5.4-5.447.097-2.488-.587-4.617-3.528-5.555a17.865 17.865 0 0 0-4.957-.757c-4.248-.12-8.51 0-12.758 0a3.593 3.593 0 0 0-.504 0v12.096zm12.4 6.012H.035v-.65C-.028 15.817-.04 8.245 0 .686V.024h19.227c2.684-.043 5.363.26 7.97.902 5.232 1.407 8.749 4.4 9.169 9.823.336 4.317-.924 7.936-4.729 10.365a19.01 19.01 0 0 1-8.401 2.573c-1.2.133-2.4.205-3.66.301" fill="#fff"/></g><defs><clipPath id="clip0_1453_2020"><path fill="#fff" d="M0 0H160V24H0z"/></clipPath></defs></svg>