<svg width="24" height="24" viewBox="0 0 24 24" fill="none" xmlns="http://www.w3.org/2000/svg">
<g clip-path="url(#clip0_1453_1926)">
<path d="M16.0295 7.28906L13.1856 10.1332C12.3234 9.58131 11.1778 9.68275 10.4284 10.4325C9.69216 11.1688 9.56705 12.3109 10.1293 13.1898L8.85156 14.4675C8.66406 14.655 8.66406 14.9588 8.85156 15.1463C9.03906 15.3338 9.34281 15.3338 9.53031 15.1463L10.8085 13.8681C11.6848 14.4274 12.8257 14.3057 13.5634 13.5675C14.297 12.834 14.4262 11.6938 13.8638 10.8125L16.7083 7.96782C16.8958 7.78031 16.8958 7.47656 16.7083 7.28907C16.5208 7.10157 16.217 7.10156 16.0295 7.28906ZM12.8847 12.8888C12.4094 13.3636 11.5825 13.3636 11.1072 12.8888C10.6182 12.3993 10.6144 11.6045 11.1072 11.1113C11.599 10.6199 12.3929 10.6199 12.8847 11.1113C13.3737 11.6007 13.3775 12.3955 12.8847 12.8888Z" fill="#414042"/>
<path d="M11.9966 0.47998C5.61739 0.47998 0.476562 5.68498 0.476562 12C0.476562 18.352 5.64453 23.52 11.9966 23.52C18.3486 23.52 23.5166 18.352 23.5166 12C23.5166 5.69179 18.3823 0.47998 11.9966 0.47998ZM11.9966 22.56C8.56941 22.56 5.51972 20.9179 3.58929 18.3804H20.4038C18.4734 20.9179 15.4237 22.56 11.9966 22.56ZM21.055 17.4204H2.93809C1.98571 15.8347 1.43657 13.9805 1.43657 12C1.43657 11.1479 1.54063 10.3201 1.73211 9.52591L3.25625 9.96747C3.51214 10.0415 3.77745 9.89382 3.85109 9.64005C3.92469 9.38552 3.77797 9.11927 3.52344 9.04544L2 8.60405C2.41719 7.37921 3.05094 6.25374 3.85953 5.27681L5.03281 6.33982C5.2289 6.51739 5.53277 6.50315 5.71109 6.3063C5.88922 6.1099 5.87422 5.80638 5.67781 5.62825L4.505 4.56572C5.40136 3.66261 6.46015 2.92222 7.63203 2.38791L8.22125 3.8592C8.31972 4.10417 8.59749 4.22564 8.84562 4.12638C9.09172 4.02795 9.21125 3.74857 9.11281 3.50248L8.52312 2.02973C9.46765 1.69967 10.4722 1.49916 11.5166 1.45217V3.03912C11.5166 3.3042 11.7312 3.51912 11.9966 3.51912C12.2619 3.51912 12.4766 3.3042 12.4766 3.03912V1.45217C13.7913 1.51135 15.0435 1.81228 16.1912 2.31103L15.4953 3.73662C15.3791 3.97474 15.478 4.26209 15.7161 4.37834C15.9496 4.49346 16.2405 4.39879 16.3578 4.15755L17.0535 2.73226C18.1801 3.34943 19.1808 4.1674 20.0112 5.13572L18.7653 6.10849C18.5562 6.27161 18.5192 6.57325 18.6823 6.78208C18.8454 6.99114 19.1469 7.02824 19.3559 6.86505L20.6026 5.89181C21.3359 6.922 21.8912 8.08731 22.218 9.34462L20.6633 9.6738C20.4041 9.72888 20.2381 9.98364 20.293 10.2429C20.3408 10.4688 20.54 10.6235 20.7622 10.6235C20.795 10.6235 20.8287 10.6202 20.862 10.6132L22.415 10.2843C22.5068 10.843 22.5566 11.4157 22.5566 12C22.5566 13.9805 22.0074 15.8347 21.055 17.4204Z" fill="#414042"/>
</g>
<defs>
<clipPath id="clip0_1453_1926">
<rect width="24" height="24" fill="white"/>
</clipPath>
</defs>
</svg>
