<svg width="24" height="24" viewBox="0 0 24 24" fill="none" xmlns="http://www.w3.org/2000/svg">
<path d="M18.4352 20.7761C18.2501 20.7183 18.0528 20.8215 17.9948 21.0068L17.7093 21.9208C17.4522 22.7439 16.7001 23.2969 15.8377 23.2969H8.17573C7.31337 23.2969 6.56127 22.7439 6.30416 21.9208L3.73194 13.687C3.38314 12.5705 3.53187 11.3577 4.14012 10.3598C4.24119 10.194 4.18869 9.97776 4.02289 9.87665C3.85705 9.77554 3.64077 9.82804 3.5397 9.99388C2.82622 11.1645 2.65166 12.587 3.06083 13.8967L5.63305 22.1304C5.98231 23.2487 7.00414 24 8.17573 24H15.8377C17.0093 24 18.0312 23.2487 18.3805 22.1304L18.666 21.2165C18.7238 21.0311 18.6205 20.834 18.4352 20.7761Z" fill="#414042"/>
<path d="M18.2857 8.14791C17.4898 7.80183 16.6821 7.51758 15.8789 7.29961L16.6263 5.61234H18.4155C18.8893 5.61234 19.2747 5.22689 19.2747 4.75313V2.93766C19.2747 2.46389 18.8893 2.07844 18.4155 2.07844H16.6519C16.6087 2.00588 16.563 1.93453 16.5139 1.86492L15.6899 0.69525C15.3831 0.259922 14.8821 0 14.3495 0H9.66528C9.13273 0 8.63164 0.259922 8.32489 0.695297L7.50083 1.86492C6.82967 2.81761 6.70592 4.07137 7.17786 5.13694L8.11831 7.25995C7.28708 7.48139 6.45688 7.77637 5.64486 8.13998C5.31674 8.28661 5.00553 8.47087 4.71992 8.68753C4.56524 8.80491 4.53496 9.02541 4.65233 9.18014C4.72147 9.27127 4.82642 9.31922 4.93264 9.31922C5.0067 9.31922 5.08133 9.29597 5.14485 9.24778C5.3878 9.06347 5.65255 8.90676 5.93197 8.78184C6.74492 8.41777 7.57606 8.12597 8.40678 7.91138L8.65081 8.46225C8.66581 8.49605 8.68217 8.52895 8.69956 8.56111C7.87109 8.76764 7.03934 9.05667 6.21936 9.42347C4.67797 10.1132 3.89736 11.856 4.40366 13.4773L6.97578 21.7112C7.14125 22.239 7.62383 22.5937 8.17658 22.5937H15.8383C16.3914 22.5937 16.8738 22.2389 17.0387 21.7109L19.5986 13.5172C20.1107 11.8782 19.3052 10.1244 17.7251 9.43786C16.9156 9.08592 16.1002 8.80472 15.2933 8.59852C15.3189 8.5545 15.343 8.50941 15.3639 8.46216L15.5906 7.95028C16.3952 8.16272 17.206 8.44519 18.0053 8.79272C19.9155 9.62334 20.8889 11.7446 20.2694 13.7271L18.4849 19.4407C18.4271 19.626 18.5304 19.8232 18.7157 19.8811C18.7506 19.892 18.7859 19.8972 18.8206 19.8972C18.9703 19.8972 19.1091 19.8008 19.1561 19.6503L20.9406 13.9367C21.6674 11.6107 20.526 9.12206 18.2857 8.14791ZM18.4155 2.78156C18.5016 2.78156 18.5716 2.85159 18.5716 2.93766V4.75313C18.5716 4.83919 18.5016 4.90922 18.4155 4.90922H16.9274C17.173 4.2202 17.1816 3.46983 16.9657 2.78152H18.4155V2.78156ZM8.07565 2.26988L8.89967 1.10025C9.07489 0.851578 9.36111 0.703125 9.66528 0.703125H14.3495C14.6537 0.703125 14.9399 0.851578 15.1151 1.10025L15.9392 2.26988C16.4689 3.0218 16.5665 4.01123 16.1941 4.85222L14.7211 8.17744C14.6081 8.43258 14.3547 8.59748 14.0756 8.59748H9.93917C9.66012 8.59748 9.40681 8.43258 9.29375 8.17748L7.8208 4.85227C7.44828 4.01123 7.54597 3.02175 8.07565 2.26988ZM12.0074 15.7711C12.7624 15.7711 13.3767 15.1568 13.3767 14.4017V11.9528C13.7115 12.3001 13.9057 12.767 13.9057 13.2684V17.3535C13.9057 18.4004 13.0541 19.252 12.0072 19.252C10.9604 19.252 10.1088 18.4004 10.1088 17.3535V13.2684C10.1088 12.7672 10.3031 12.3002 10.6381 11.9527V14.4017C10.6381 15.1568 11.2523 15.7711 12.0074 15.7711ZM12.6736 14.4017C12.6736 14.7691 12.3747 15.068 12.0074 15.068C11.64 15.068 11.3412 14.7691 11.3412 14.4017V9.30056H12.6736V14.4017ZM18.9275 13.3075L16.3676 21.5013C16.2949 21.7342 16.0822 21.8907 15.8384 21.8907H8.17667C7.93283 21.8907 7.71987 21.7341 7.64694 21.5013L5.07491 13.2678C4.67478 11.9864 5.2903 10.6096 6.50661 10.0654C7.43042 9.65208 8.36853 9.34284 9.29717 9.1447C9.49226 9.24473 9.71122 9.30066 9.93917 9.30066H10.6381V11.0564C9.87284 11.5291 9.40568 12.3578 9.40568 13.2685V17.3536C9.40568 18.7882 10.5727 19.9552 12.0072 19.9552C13.4418 19.9552 14.6088 18.7882 14.6088 17.3536V13.2685C14.6088 12.3575 14.1418 11.5289 13.3767 11.0566V9.30066H14.0756C14.2827 9.30066 14.4827 9.255 14.6638 9.17166C15.5816 9.37313 16.5165 9.67917 17.4448 10.0828C18.6948 10.6259 19.3322 12.0122 18.9275 13.3075Z" fill="#414042"/>
<path d="M15.875 12.1016H16.3428C16.5369 12.1016 16.6943 11.9442 16.6943 11.75C16.6943 11.5558 16.5369 11.3984 16.3428 11.3984H15.875C15.6808 11.3984 15.5234 11.5558 15.5234 11.75C15.5234 11.9442 15.6808 12.1016 15.875 12.1016Z" fill="#414042"/>
<path d="M15.875 15.116H16.3428C16.5369 15.116 16.6943 14.9586 16.6943 14.7644C16.6943 14.5702 16.5369 14.4128 16.3428 14.4128H15.875C15.6808 14.4128 15.5234 14.5702 15.5234 14.7644C15.5234 14.9586 15.6808 15.116 15.875 15.116Z" fill="#414042"/>
<path d="M16.3428 17.4275H15.875C15.6808 17.4275 15.5234 17.5848 15.5234 17.7791C15.5234 17.9733 15.6808 18.1306 15.875 18.1306H16.3428C16.5369 18.1306 16.6943 17.9733 16.6943 17.7791C16.6943 17.5848 16.5369 17.4275 16.3428 17.4275Z" fill="#414042"/>
</svg>
