<svg version="1.0" xmlns="http://www.w3.org/2000/svg"
 width="512.000000pt" height="512.000000pt" viewBox="0 0 512.000000 512.000000"
 preserveAspectRatio="xMidYMid meet">
<g transform="translate(0.000000,512.000000) scale(0.100000,-0.100000)"
fill="#ffffff" stroke="none">
<path d="M352 4449 c-151 -29 -281 -145 -333 -296 -18 -54 -19 -89 -19 -852 0
-846 -1 -832 48 -927 29 -56 94 -127 152 -164 82 -52 155 -70 291 -70 65 0
119 2 119 4 0 2 50 223 110 492 81 361 116 496 133 521 46 67 -71 63 1707 63
1778 0 1661 4 1707 -63 17 -25 52 -160 133 -521 60 -269 110 -490 110 -492 0
-2 54 -4 119 -4 136 0 209 18 291 70 58 37 123 108 152 164 49 95 48 81 48
927 0 763 -1 798 -19 852 -54 155 -182 267 -341 297 -66 12 -4345 12 -4408 -1z
m3069 -762 c65 -43 86 -124 49 -185 -40 -65 -67 -73 -232 -70 -141 3 -148 4
-173 28 -78 73 -70 177 17 230 29 17 51 20 169 20 125 0 139 -2 170 -23z m690
0 c90 -60 88 -181 -4 -238 -29 -18 -47 -19 -179 -17 l-148 3 -36 37 c-67 67
-54 168 28 218 29 17 51 20 169 20 125 0 139 -2 170 -23z"/>
<path d="M1075 2918 c-2 -7 -41 -177 -85 -378 -45 -201 -84 -373 -86 -382 -5
-17 79 -18 1655 -18 l1661 0 -6 28 c-3 15 -43 191 -88 392 l-82 365 -1483 3
c-1180 2 -1482 0 -1486 -10z"/>
<path d="M1752 1933 c-45 -22 -71 -63 -82 -125 -4 -29 -24 -85 -44 -123 -73
-144 -72 -289 5 -443 48 -97 48 -109 -6 -217 -58 -115 -70 -224 -32 -289 74
-129 261 -85 282 66 4 29 22 82 40 118 44 86 55 130 55 221 0 87 -19 162 -61
235 -41 72 -38 111 13 212 38 74 42 91 46 170 3 79 2 90 -20 122 -43 65 -127
87 -196 53z"/>
<path d="M2540 1933 c-46 -24 -76 -71 -84 -131 -3 -27 -20 -75 -37 -106 -41
-75 -59 -145 -59 -231 0 -80 15 -136 60 -225 18 -35 32 -78 33 -96 1 -19 -17
-70 -43 -125 -37 -78 -44 -103 -47 -168 -3 -60 0 -83 14 -110 25 -48 64 -73
120 -78 88 -8 154 48 166 141 4 25 21 74 38 108 42 84 59 148 59 233 0 81 -15
136 -60 226 -42 82 -41 117 3 204 19 39 40 88 46 110 15 55 14 139 -3 179 -30
71 -134 106 -206 69z"/>
<path d="M3335 1936 c-50 -22 -74 -58 -89 -130 -8 -36 -24 -83 -35 -102 -84
-141 -82 -331 3 -477 36 -61 35 -115 -4 -182 -64 -112 -81 -251 -37 -316 81
-121 277 -66 277 78 0 15 18 64 40 109 78 160 78 293 -1 452 -48 95 -48 111 5
212 56 107 71 226 35 290 -39 68 -124 97 -194 66z"/>
</g>
</svg>
