<svg version="1.0" xmlns="http://www.w3.org/2000/svg" width="512.000000pt" height="512.000000pt" viewBox="0 0 512.000000 512.000000" preserveAspectRatio="xMidYMid meet">
    <g transform="translate(0.000000,512.000000) scale(0.100000,-0.100000)" fill="#ffffff" stroke="none">
        <path d="M860 4640 c-41 -11 -113 -39 -160 -62 -69 -34 -103 -60 -180 -138
-78 -77 -104 -111 -138 -180 -79 -159 -82 -184 -82 -672 l0 -428 299 0 299 0
4 263 c5 230 8 269 26 318 28 79 45 108 91 161 53 60 117 101 199 130 67 23
70 23 592 23 520 0 526 -1 585 -23 33 -12 84 -39 113 -58 l52 -36 53 36 c28
19 79 46 112 58 59 22 65 23 585 23 522 0 525 0 592 -23 82 -29 146 -70 199
-130 46 -53 63 -82 91 -161 18 -49 21 -88 26 -318 l4 -263 299 0 299 0 0 428
c0 488 -3 513 -82 672 -34 69 -60 103 -138 180 -77 78 -111 104 -180 138 -47
23 -121 51 -164 62 -77 20 -115 20 -1700 19 -1567 0 -1623 -1 -1696 -19z" />
        <path d="M1266 3741 c-64 -43 -66 -50 -66 -328 l0 -253 605 0 605 0 0 253 c0
278 -2 285 -66 328 -27 18 -56 19 -539 19 -483 0 -512 -1 -539 -19z" />
        <path d="M2776 3741 c-64 -43 -66 -50 -66 -328 l0 -253 605 0 605 0 0 253 c0
278 -2 285 -66 328 -27 18 -56 19 -539 19 -483 0 -512 -1 -539 -19z" />
        <path d="M303 2840 c-134 -48 -237 -152 -284 -288 -17 -49 -19 -85 -19 -324
l0 -268 2560 0 2560 0 0 268 c0 240 -2 275 -19 325 -47 137 -151 241 -289 288
-54 18 -114 19 -2256 18 -2119 0 -2203 -1 -2253 -19z" />
        <path d="M0 1408 c0 -231 2 -255 19 -282 37 -55 66 -66 179 -66 l102 0 0 -252
c0 -279 2 -286 66 -329 39 -26 129 -26 168 0 64 43 66 50 66 329 l0 252 1960
0 1960 0 0 -252 c0 -231 2 -255 19 -282 31 -46 69 -66 131 -66 62 0 100 20
131 66 17 27 19 51 19 282 l0 252 103 0 c112 0 141 11 178 66 17 27 19 51 19
282 l0 252 -2560 0 -2560 0 0 -252z" />
    </g>
</svg>