<svg version="1.0" xmlns="http://www.w3.org/2000/svg"
 width="512.000000pt" height="512.000000pt" viewBox="0 0 512.000000 512.000000"
 preserveAspectRatio="xMidYMid meet">
<g transform="translate(0.000000,512.000000) scale(0.100000,-0.100000)"
fill="#ffffff" stroke="none">
<path d="M3073 5055 c-29 -12 -153 -164 -153 -187 0 -4 187 -8 415 -8 l415 0
0 38 c0 47 -36 119 -73 146 -27 20 -44 21 -300 23 -217 2 -278 0 -304 -12z"/>
<path d="M615 4764 c-11 -3 -30 -7 -42 -9 -32 -7 -81 -53 -103 -96 -19 -37
-20 -63 -20 -704 0 -648 1 -667 20 -705 11 -22 23 -40 26 -40 3 0 19 8 37 18
30 16 132 17 1672 20 1674 2 1677 2 1755 -32 11 -4 22 4 35 26 19 32 20 56 23
683 2 449 -1 664 -8 694 -15 60 -43 97 -93 124 l-42 22 -1620 1 c-891 1 -1629
0 -1640 -2z m517 -393 c19 -13 46 -40 59 -59 24 -35 24 -37 27 -336 3 -322 0
-353 -44 -406 -44 -51 -78 -63 -199 -68 -129 -5 -181 6 -231 50 -69 61 -69 59
-69 398 0 296 1 306 22 347 22 41 59 74 104 93 13 5 85 8 160 7 125 -2 138 -4
171 -26z"/>
<path d="M820 4297 c-48 -24 -50 -40 -48 -354 4 -361 -8 -336 162 -341 137 -4
169 7 185 66 15 51 14 539 0 581 -17 48 -52 61 -171 61 -62 0 -113 -5 -128
-13z"/>
<path d="M555 3134 c-43 -22 -64 -44 -86 -86 -18 -36 -19 -78 -19 -1173 0
-931 2 -1141 14 -1168 17 -43 76 -93 123 -106 55 -16 3243 -15 3298 0 51 14
110 73 124 124 6 22 11 86 11 143 l0 102 85 0 85 0 0 165 0 165 -85 0 -85 0 0
575 0 575 85 0 85 0 0 160 0 160 -84 0 -84 0 -3 123 c-4 111 -6 126 -31 167
-15 27 -42 54 -66 68 l-40 22 -1648 0 c-1476 0 -1652 -2 -1679 -16z m3185
-1259 l0 -1005 -1505 0 -1505 0 0 1005 0 1005 1505 0 1505 0 0 -1005z"/>
<path d="M820 2055 l0 -725 100 0 99 0 6 38 c15 94 30 136 64 190 70 108 172
174 298 192 89 13 408 12 498 0 190 -28 329 -163 358 -350 l11 -70 73 0 73 0
0 441 0 441 60 72 60 73 0 91 0 92 445 0 445 0 0 -88 0 -88 60 -72 60 -71 0
-625 0 -626 55 0 55 0 0 905 0 905 -1410 0 -1410 0 0 -725z"/>
<path d="M2620 2384 c0 -53 -2 -58 -60 -126 l-60 -72 0 -591 c0 -561 1 -593
18 -608 17 -15 63 -17 455 -17 421 0 437 1 447 19 6 13 10 223 10 612 l0 592
-55 67 c-52 64 -55 70 -55 124 l0 56 -350 0 -350 0 0 -56z m465 -518 c62 -28
128 -101 149 -163 36 -105 11 -209 -69 -289 -177 -177 -474 -55 -475 196 0
113 61 208 165 256 69 33 161 33 230 0z"/>
<path d="M2907 1785 c-50 -17 -85 -50 -108 -100 -66 -142 63 -292 218 -253
176 44 181 309 6 357 -49 14 -69 13 -116 -4z"/>
<path d="M1350 1647 c-124 -35 -212 -139 -227 -267 l-6 -50 285 0 c157 0 300
3 318 6 32 7 32 8 26 51 -14 101 -80 194 -170 238 -63 31 -161 40 -226 22z"/>
<path d="M1710 1655 c0 -4 16 -26 36 -48 47 -51 83 -130 96 -212 l11 -65 150
0 149 0 -4 53 c-9 104 -77 198 -178 245 -44 20 -75 26 -157 30 -57 3 -103 1
-103 -3z"/>
<path d="M900 1236 c0 -3 63 -63 140 -135 l141 -131 457 0 457 1 135 124 c74
69 137 130 138 135 3 7 -248 10 -732 10 -405 0 -736 -2 -736 -4z"/>
<path d="M820 1065 l0 -95 112 0 c66 0 108 4 103 9 -92 87 -200 181 -206 181
-5 0 -9 -43 -9 -95z"/>
<path d="M4290 1870 l0 -1280 103 0 c123 0 166 11 214 53 67 59 63 -17 63
1227 0 995 -2 1135 -15 1167 -38 90 -88 112 -247 113 l-118 0 0 -1280z"/>
<path d="M720 275 l0 -225 138 0 137 0 135 154 135 155 966 0 966 1 137 -155
137 -155 139 0 140 0 0 225 0 225 -1515 0 -1515 0 0 -225z"/>
</g>
</svg>
