<svg version="1.0" xmlns="http://www.w3.org/2000/svg" width="512.000000pt" height="512.000000pt" viewBox="0 0 512.000000 512.000000" preserveAspectRatio="xMidYMid meet">
    <g transform="translate(0.000000,512.000000) scale(0.100000,-0.100000)" fill="#ffffff" stroke="none">
        <path d="M238 4968 c-47 -12 -113 -69 -141 -122 -20 -37 -22 -55 -22 -192 0
-135 2 -154 19 -173 l19 -21 2447 0 2447 0 19 21 c17 19 19 38 19 173 0 137
-2 155 -22 192 -30 56 -94 109 -148 123 -58 14 -4582 14 -4637 -1z" />
        <path d="M270 2311 l0 -1999 -76 -4 c-69 -3 -79 -6 -100 -31 -37 -43 -26 -104
23 -126 17 -8 272 -11 873 -11 l850 0 0 574 0 573 -42 6 c-80 11 -111 83 -56
130 19 16 73 17 818 17 745 0 799 -1 818 -17 55 -47 24 -119 -56 -130 l-42 -6
0 -573 0 -574 856 0 856 0 29 29 c35 36 37 70 5 108 -21 25 -31 28 -100 31
l-76 4 0 1999 0 1999 -2290 0 -2290 0 0 -1999z m842 1748 c120 -25 226 -108
275 -215 34 -74 45 -169 41 -346 l-3 -150 -28 -24 -28 -24 -330 0 -330 0 -25
25 -26 26 4 212 3 212 31 65 c51 107 142 184 254 214 68 18 95 19 162 5z
m1069 -14 c92 -32 194 -133 233 -232 16 -39 20 -83 24 -241 5 -212 -1 -242
-47 -262 -19 -7 -128 -10 -354 -8 -298 3 -328 5 -344 21 -16 16 -18 39 -18
230 0 198 2 216 23 269 27 67 105 157 166 193 93 54 212 66 317 30z m1028 -7
c79 -30 179 -131 211 -213 22 -54 24 -80 28 -253 4 -209 -1 -241 -44 -261 -34
-15 -643 -15 -677 0 -41 19 -47 48 -47 232 0 244 24 322 128 419 111 103 254
130 401 76z m956 16 c103 -26 188 -91 242 -181 44 -75 53 -133 53 -334 0 -169
-2 -189 -19 -210 l-19 -24 -336 -3 -337 -3 -29 30 -30 29 0 164 c0 91 5 191
11 224 33 180 191 316 374 323 17 1 58 -6 90 -15z m-2983 -1374 c76 -28 161
-106 198 -181 40 -78 52 -169 48 -353 -4 -220 32 -200 -370 -204 -219 -2 -330
1 -349 8 -47 20 -51 40 -47 261 l3 204 32 67 c51 108 149 190 260 218 57 14
161 5 225 -20z m1034 -10 c81 -39 164 -128 195 -207 20 -52 23 -80 27 -259 l4
-201 -25 -29 -25 -29 -337 0 -337 0 -24 28 c-23 27 -24 33 -24 202 0 189 9
254 47 328 45 91 148 171 250 197 70 17 179 5 249 -30z m1007 2 c70 -33 133
-89 170 -154 46 -76 57 -145 57 -340 0 -173 -1 -178 -24 -205 l-24 -28 -337 0
-337 0 -24 28 c-23 27 -24 32 -24 205 0 193 12 264 55 337 50 86 149 161 242
185 68 17 177 5 246 -28z m1012 -1 c82 -38 148 -104 188 -189 l32 -67 3 -198
c4 -229 0 -251 -57 -268 -23 -6 -147 -9 -348 -7 -310 3 -313 3 -335 26 -22 22
-23 27 -22 230 0 191 2 212 23 264 41 104 152 204 260 235 73 21 180 10 256
-26z m-3035 -1357 c119 -56 199 -163 220 -294 13 -87 13 -339 -1 -379 -6 -17
-19 -36 -29 -41 -11 -6 -154 -10 -354 -10 l-335 0 -20 26 c-20 25 -21 40 -21
214 0 218 13 280 78 365 44 59 128 120 192 140 75 24 193 15 270 -21z m3035 1
c106 -51 188 -153 215 -267 5 -24 10 -125 10 -224 0 -168 -1 -183 -21 -208
l-20 -26 -339 0 c-318 0 -339 1 -361 19 -23 19 -24 25 -27 181 -2 88 1 191 7
227 32 203 193 338 396 330 63 -3 93 -10 140 -32z" />
        <path d="M1990 715 l0 -575 245 0 245 0 0 575 0 575 -245 0 -245 0 0 -575z" />
        <path d="M2630 715 l0 -575 250 0 250 0 0 575 0 575 -250 0 -250 0 0 -575z" />
    </g>
</svg>