<svg version="1.0" xmlns="http://www.w3.org/2000/svg" width="512.000000pt" height="512.000000pt" viewBox="0 0 512.000000 512.000000" preserveAspectRatio="xMidYMid meet">
    <g transform="translate(0.000000,512.000000) scale(0.100000,-0.100000)" fill="#ffffff" stroke="none">
        <path d="M405 4573 c-175 -17 -339 -154 -390 -326 -13 -44 -15 -260 -15 -1687
0 -1427 2 -1643 15 -1687 43 -144 154 -256 307 -310 51 -17 140 -18 2238 -18
2098 0 2187 1 2238 18 153 54 264 166 307 310 13 44 15 260 15 1687 0 1427 -2
1643 -15 1687 -42 141 -148 250 -301 309 -47 18 -120 19 -2204 20 -1185 0
-2173 -1 -2195 -3z m4276 -379 c57 -10 73 -50 67 -171 -7 -119 -25 -184 -82
-294 -70 -138 -182 -283 -296 -386 -25 -22 -295 -237 -600 -478 -305 -241
-616 -488 -690 -550 -158 -131 -279 -216 -370 -259 -57 -27 -76 -31 -150 -31
-74 0 -93 4 -150 31 -91 43 -212 128 -370 259 -74 62 -391 315 -705 562 -314
248 -601 479 -639 514 -192 176 -314 433 -319 670 -2 88 -1 91 26 115 l28 24
2107 0 c1159 0 2123 -3 2143 -6z m-3780 -1455 c199 -154 526 -415 727 -578
413 -334 453 -364 596 -431 139 -67 209 -84 336 -84 127 0 197 17 336 84 143
67 183 97 596 431 201 163 528 424 727 578 198 155 399 318 446 363 l85 80 -2
-1107 -3 -1107 -28 -24 -28 -24 -2129 0 -2129 0 -28 24 -28 24 -3 1107 -2
1107 85 -80 c47 -45 248 -208 446 -363z" />
    </g>
</svg>