<svg version="1.0" xmlns="http://www.w3.org/2000/svg"
 width="512.000000pt" height="512.000000pt" viewBox="0 0 512.000000 512.000000"
 preserveAspectRatio="xMidYMid meet">
<g transform="translate(0.000000,512.000000) scale(0.100000,-0.100000)"
fill="#ffffff" stroke="none">
<path d="M295 4941 c-22 -10 -54 -34 -72 -52 -68 -72 -63 95 -63 -2054 0
-2149 -5 -1982 63 -2054 66 -70 71 -71 465 -71 l352 0 0 -145 c0 -162 8 -196
63 -254 62 -65 88 -71 315 -71 224 0 250 5 311 63 61 58 71 94 71 260 l0 147
760 0 760 0 0 -147 c0 -166 10 -202 71 -260 61 -58 87 -63 311 -63 227 0 253
6 315 71 55 58 63 92 63 254 l0 145 350 0 c387 0 393 1 459 63 18 18 42 50 52
72 18 39 19 111 19 1990 0 1879 -1 1951 -19 1990 -23 49 -74 99 -123 119 -33
14 -274 16 -2260 16 -2144 0 -2224 -1 -2263 -19z m4023 -467 c100 -50 132
-120 132 -290 l0 -114 75 0 c79 0 127 -16 139 -45 3 -9 6 -98 6 -198 0 -172
-1 -182 -22 -204 -19 -20 -31 -23 -105 -23 l-83 0 0 -765 0 -765 85 0 c126 0
125 3 125 -228 0 -101 -4 -192 -10 -202 -14 -26 -63 -40 -141 -40 l-69 0 0
-114 c0 -168 -33 -241 -133 -291 l-51 -25 -1706 0 -1706 0 -51 25 c-57 29 -96
74 -118 136 -23 64 -22 2946 0 3010 23 63 58 104 117 133 l52 26 1706 0 1706
0 52 -26z"/>
<path d="M845 4325 l-25 -24 0 -1466 0 -1466 25 -24 24 -25 1689 0 c1648 0
1690 0 1713 19 22 18 24 27 27 140 l4 121 -70 0 c-79 0 -128 14 -142 40 -6 10
-10 102 -10 204 0 232 -3 226 130 226 l90 0 0 765 0 765 -90 0 c-134 0 -130
-6 -130 229 0 239 -3 234 129 239 l91 4 0 114 c0 109 -1 116 -25 139 l-24 25
-1691 0 -1691 0 -24 -25z m704 -685 c51 -26 97 -82 110 -136 7 -26 11 -173 11
-386 l1 -343 43 -32 c47 -34 103 -113 130 -181 57 -146 12 -327 -110 -442
-165 -156 -413 -152 -575 9 -169 170 -164 432 12 596 l58 53 3 358 c3 354 3
360 27 407 54 111 181 153 290 97z m1022 -21 c107 -54 148 -182 95 -295 -65
-141 -247 -170 -360 -58 -46 46 -60 83 -61 154 0 53 5 73 28 112 62 106 189
143 298 87z m589 -7 c103 -63 138 -180 86 -287 -71 -143 -246 -172 -360 -59
-118 119 -66 317 96 370 57 18 123 9 178 -24z m577 2 c105 -61 141 -183 87
-292 -86 -172 -323 -164 -405 13 -27 57 -24 121 7 183 59 119 197 162 311 96z
m-1189 -570 c83 -34 142 -121 142 -209 0 -64 -26 -121 -78 -167 -112 -101
-283 -64 -348 76 -42 91 -27 174 47 248 66 66 156 86 237 52z m580 0 c83 -34
142 -121 142 -209 0 -64 -26 -121 -78 -167 -90 -81 -214 -77 -302 12 -94 93
-93 217 1 312 66 66 156 86 237 52z m580 0 c83 -34 142 -121 142 -209 0 -120
-104 -225 -224 -225 -116 0 -226 110 -226 225 0 153 169 268 308 209z m-1179
-580 c130 -38 199 -190 140 -311 -43 -90 -156 -146 -247 -123 -198 49 -244
293 -78 406 30 21 83 39 122 43 6 1 34 -6 63 -15z m580 0 c163 -48 214 -251
94 -371 -112 -112 -288 -82 -358 62 -24 47 -27 64 -22 111 10 99 79 181 172
203 56 13 55 13 114 -5z m575 2 c67 -20 114 -61 142 -120 42 -91 27 -184 -43
-253 -81 -81 -198 -90 -291 -23 -51 36 -92 118 -92 180 0 96 74 191 170 216
59 16 59 16 114 0z"/>
<path d="M1409 3501 l-24 -19 -3 -321 -3 -321 71 0 70 0 0 315 0 316 -25 24
c-29 30 -55 32 -86 6z"/>
<path d="M1367 2676 c-93 -34 -157 -107 -177 -202 -39 -186 128 -353 314 -314
210 43 287 300 136 450 -72 73 -181 99 -273 66z"/>
<path d="M2430 3487 c-47 -24 -52 -104 -8 -128 31 -17 77 -13 99 7 30 27 26
87 -7 113 -31 24 -49 26 -84 8z"/>
<path d="M3010 3487 c-47 -24 -52 -104 -8 -128 12 -7 36 -12 52 -11 64 2 91
91 40 131 -31 24 -49 26 -84 8z"/>
<path d="M3590 3487 c-47 -24 -52 -104 -8 -128 12 -7 36 -12 52 -11 64 2 91
91 40 131 -31 24 -49 26 -84 8z"/>
<path d="M2411 2884 c-12 -15 -21 -37 -21 -49 0 -38 37 -75 76 -75 45 0 74 29
74 75 0 72 -86 104 -129 49z"/>
<path d="M2992 2887 c-45 -48 -11 -127 54 -127 45 0 74 29 74 75 0 69 -81 102
-128 52z"/>
<path d="M3572 2887 c-46 -49 -12 -127 54 -127 63 0 98 86 54 130 -28 28 -81
26 -108 -3z"/>
<path d="M2433 2320 c-72 -30 -49 -144 30 -144 49 0 77 27 77 74 0 56 -54 92
-107 70z"/>
<path d="M3013 2320 c-72 -30 -49 -144 30 -144 49 0 77 27 77 74 0 56 -54 92
-107 70z"/>
<path d="M3593 2320 c-72 -30 -49 -144 30 -144 47 0 77 27 77 69 0 58 -55 97
-107 75z"/>
<path d="M4230 3835 l0 -85 145 0 145 0 0 85 0 85 -145 0 -145 0 0 -85z"/>
<path d="M4230 1835 l0 -85 145 0 145 0 0 85 0 85 -145 0 -145 0 0 -85z"/>
</g>
</svg>
