<svg version="1.0" xmlns="http://www.w3.org/2000/svg"
 width="512.000000pt" height="512.000000pt" viewBox="0 0 512.000000 512.000000"
 preserveAspectRatio="xMidYMid meet">
<g transform="translate(0.000000,512.000000) scale(0.100000,-0.100000)"
fill="#ffffff" stroke="none">
<path d="M1140 4763 c-160 -107 -593 -605 -767 -882 -50 -79 -53 -88 -53 -149
0 -142 87 -464 190 -707 433 -1019 1496 -2082 2515 -2515 243 -103 565 -190
707 -190 61 0 70 3 149 53 277 174 775 607 882 767 61 91 50 149 -45 235 -105
95 -543 371 -803 506 -215 112 -294 136 -353 105 -31 -16 -111 -98 -197 -201
-97 -116 -198 -215 -219 -215 -38 0 -233 73 -348 130 -492 244 -849 599 -1091
1085 -59 119 -121 277 -132 338 -7 37 -5 41 46 94 30 30 92 87 139 126 119
100 210 187 226 219 30 58 9 131 -95 335 -124 243 -421 715 -516 821 -85 95
-144 106 -235 45z"/>
<path d="M2722 4638 l3 -163 115 -7 c300 -17 636 -136 890 -316 122 -86 336
-300 422 -422 182 -257 301 -595 315 -892 l6 -118 163 0 164 0 0 83 c0 409
-188 903 -474 1246 -84 100 -252 261 -348 334 -341 256 -795 417 -1175 417
l-83 0 2 -162z"/>
<path d="M2722 3838 l3 -163 80 -6 c451 -37 832 -418 862 -861 l6 -88 163 0
164 0 0 69 c0 199 -84 453 -217 655 -60 91 -248 279 -339 339 -203 133 -456
217 -656 217 l-68 0 2 -162z"/>
</g>
</svg>
