<svg version="1.0" xmlns="http://www.w3.org/2000/svg"
 width="512.000000pt" height="512.000000pt" viewBox="0 0 512.000000 512.000000"
 preserveAspectRatio="xMidYMid meet">
<g transform="translate(0.000000,512.000000) scale(0.100000,-0.100000)"
fill="#ffffff" stroke="none">
<path d="M79 4427 c-18 -12 -44 -38 -56 -56 l-23 -34 0 -1354 c0 -1146 2
-1358 14 -1381 20 -38 65 -77 105 -91 49 -16 4833 -16 4882 0 40 14 85 53 105
91 12 23 14 235 14 1381 l0 1354 -23 34 c-12 18 -38 44 -56 56 l-34 23 -2447
0 -2447 0 -34 -23z"/>
<path d="M2150 1096 l0 -115 -319 -3 c-305 -3 -321 -4 -347 -24 -45 -33 -67
-70 -71 -121 -5 -59 18 -108 66 -140 l34 -23 1047 0 1047 0 34 23 c92 61 90
191 -5 261 -26 20 -42 21 -347 24 l-319 3 0 115 0 114 -410 0 -410 0 0 -114z"/>
</g>
</svg>
