<svg version="1.0" xmlns="http://www.w3.org/2000/svg"
 width="512.000000pt" height="512.000000pt" viewBox="0 0 512.000000 512.000000"
 preserveAspectRatio="xMidYMid meet">
<g transform="translate(0.000000,512.000000) scale(0.100000,-0.100000)"
fill="#ffffff" stroke="none">
<path d="M3101 5110 c-424 -89 -709 -483 -661 -911 52 -455 464 -783 917 -730
187 22 345 96 479 224 417 396 314 1085 -201 1345 -117 59 -186 74 -345 78
-80 2 -165 -1 -189 -6z"/>
<path d="M1675 3874 c-495 -109 -771 -626 -594 -1114 66 -180 237 -364 420
-450 116 -54 209 -73 354 -73 145 0 238 19 353 73 228 107 399 318 458 567 23
95 23 267 0 368 -65 291 -281 523 -571 615 -94 29 -316 37 -420 14z"/>
<path d="M2883 3413 c-13 -2 -23 -6 -23 -7 0 -1 11 -31 25 -65 144 -353 67
-768 -195 -1054 -35 -38 -47 -58 -38 -62 77 -27 153 -57 198 -80 232 -116 443
-330 563 -570 41 -83 92 -232 102 -299 l8 -48 86 7 c391 29 742 107 989 220
l83 38 -4 501 c-4 534 -6 555 -59 711 -72 209 -228 408 -421 535 -154 102
-304 153 -502 170 -106 9 -766 12 -812 3z"/>
<path d="M1345 2173 c-400 -59 -746 -363 -859 -754 -41 -143 -47 -248 -44
-729 l3 -444 75 -23 c218 -68 559 -146 775 -178 416 -61 894 -61 1270 1 245
40 489 112 651 191 l54 26 0 461 c0 502 -7 588 -55 734 -96 284 -327 534 -597
644 -182 73 -168 72 -733 74 -280 1 -523 0 -540 -3z"/>
</g>
</svg>
