<svg version="1.0" xmlns="http://www.w3.org/2000/svg"
 width="512.000000pt" height="512.000000pt" viewBox="0 0 512.000000 512.000000"
 preserveAspectRatio="xMidYMid meet">
<g transform="translate(0.000000,512.000000) scale(0.100000,-0.100000)"
fill="#ffffff" stroke="none">
<path d="M2345 4494 c-22 -2 -89 -9 -150 -15 -770 -75 -1506 -415 -2064 -953
-104 -101 -131 -152 -131 -251 1 -155 99 -262 251 -273 105 -7 151 13 266 119
261 239 482 393 768 530 802 386 1748 386 2550 0 290 -139 522 -301 783 -543
100 -92 149 -113 251 -106 152 11 250 118 251 273 0 99 -27 150 -131 251 -548
529 -1240 854 -2022 950 -116 14 -536 27 -622 18z"/>
<path d="M2390 3430 c-554 -38 -1058 -254 -1482 -634 -78 -69 -103 -100 -129
-151 -29 -59 -31 -71 -27 -137 5 -83 29 -136 80 -184 68 -64 154 -89 250 -72
65 11 104 37 243 160 262 233 596 386 966 444 125 19 399 22 514 5 384 -58
724 -212 989 -447 135 -121 183 -153 247 -164 91 -17 180 10 247 74 51 48 75
101 80 184 4 66 2 78 -27 137 -26 51 -51 82 -129 151 -509 456 -1152 680
-1822 634z"/>
<path d="M2401 2379 c-237 -25 -485 -123 -678 -268 -168 -126 -222 -198 -231
-307 -13 -167 109 -297 278 -298 83 0 134 23 220 98 85 75 154 120 237 155
124 53 186 65 333 65 147 0 209 -12 333 -65 83 -35 152 -80 237 -155 86 -75
137 -98 220 -98 200 1 330 188 260 376 -14 39 -38 71 -87 119 -293 286 -699
422 -1122 378z"/>
<path d="M2462 1345 c-75 -21 -109 -41 -161 -94 -144 -143 -145 -378 -1 -521
142 -143 378 -143 520 0 146 146 143 380 -6 527 -88 86 -232 122 -352 88z"/>
</g>
</svg>
